<?xml version="1.0" standalone="no"?><svg xmlns="http://www.w3.org/2000/svg" viewBox="0 0 1440 320"><path fill="#8ab4f8" fill-opacity="1" d="M0,96L30,122.7C60,149,120,203,180,186.7C240,171,300,85,360,85.3C420,85,480,171,540,192C600,213,660,171,720,154.7C780,139,840,149,900,133.3C960,117,1020,75,1080,69.3C1140,64,1200,96,1260,106.7C1320,117,1380,107,1410,101.3L1440,96L1440,320L1410,320C1380,320,1320,320,1260,320C1200,320,1140,320,1080,320C1020,320,960,320,900,320C840,320,780,320,720,320C660,320,600,320,540,320C480,320,420,320,360,320C300,320,240,320,180,320C120,320,60,320,30,320L0,320Z"></path></svg>